<svg width="56" height="56" viewBox="0 0 56 56" fill="none" xmlns="http://www.w3.org/2000/svg">
<rect width="56" height="56" fill="#1E1E1E"/>
<g id="&#240;&#159;&#142;&#168;">
<path d="M-1881 -2085C-1881 -2112.61 -1858.61 -2135 -1831 -2135H1180C1207.61 -2135 1230 -2112.61 1230 -2085V822C1230 849.614 1207.61 872 1180 872H-1831C-1858.61 872 -1881 849.614 -1881 822V-2085Z" fill="#242424"/>
<g id="Componentes">
<rect x="-368" y="-1745" width="1389" height="2048" rx="20" fill="black"/>
<g id="Frame 1">
<rect x="-248" y="-1549" width="1000" height="1741" rx="20" fill="url(#paint0_linear_1437_350)"/>
<g id="&#226;&#157;&#150; Social links">
<g id="Social links">
<g id="Theme=Dark mode, State=Hover">
<circle id="Ellipse" cx="28" cy="28" r="28" fill="white" fill-opacity="0.2"/>
<g id="Logo icon / Twitter">
<path id="Vector" d="M39.5 21.1328C38.656 21.4995 37.763 21.7412 36.8492 21.85C37.8095 21.2877 38.5317 20.3943 38.8803 19.3375C37.9724 19.8684 36.9807 20.2409 35.9478 20.4391C35.5129 19.9832 34.9897 19.6206 34.4103 19.3732C33.8308 19.1258 33.2071 18.9988 32.577 19C30.0261 19 27.9617 21.0344 27.9617 23.5422C27.9599 23.891 27.9999 24.2388 28.0808 24.5781C26.2516 24.4924 24.4604 24.0258 22.8219 23.2081C21.1833 22.3904 19.7335 21.2398 18.5652 19.8297C18.1553 20.5207 17.9385 21.3091 17.9375 22.1125C17.9375 23.6875 18.7592 25.0797 20 25.8953C19.2649 25.8779 18.5448 25.6833 17.9009 25.3281V25.3844C17.9009 27.5875 19.4947 29.4203 21.6041 29.8375C21.2074 29.9432 20.7986 29.9968 20.3881 29.9969C20.0968 29.9974 19.8062 29.9691 19.5205 29.9125C20.1069 31.7172 21.8136 33.0297 23.8353 33.0672C22.1925 34.3333 20.1756 35.0175 18.1016 35.0125C17.7334 35.012 17.3656 34.99 17 34.9469C19.1099 36.2942 21.5626 37.0068 24.0659 37C32.5672 37 37.2116 30.0766 37.2116 24.0719C37.2116 23.875 37.2064 23.6781 37.197 23.4859C38.0985 22.8447 38.8783 22.0479 39.5 21.1328Z" fill="white"/>
</g>
</g>
<rect x="-167.5" y="-135.5" width="839" height="247" rx="4.5" stroke="#9747FF" stroke-dasharray="10 5"/>
</g>
</g>
</g>
</g>
</g>
<defs>
<linearGradient id="paint0_linear_1437_350" x1="-248" y1="-1549" x2="752" y2="-1549" gradientUnits="userSpaceOnUse">
<stop stop-color="#121214"/>
<stop offset="0.5" stop-color="#121214"/>
<stop offset="0.5001" stop-color="white"/>
<stop offset="1" stop-color="white"/>
</linearGradient>
</defs>
</svg>
